#Comment line ignore any data following # character 
#Hierarchical Translation and Rotation (.htr) file 
[Header]	
#Header keywords are followed by a single value 
FileType HTR		#Single word string
DataType HTRS		#Translation followed by rotation and scale data
FileVersion 1		#integer
NumSegments 84		#integer
NumFrames 2		#integer
DataFrameRate 30		#integer, data frame rate in this file
EulerRotationOrder ZYX
CalibrationUnits mm
RotationUnits Degrees
GlobalAxisofGravity Y
BoneLengthAxis Y
ScaleFactor 1.00
[SegmentNames&Hierarchy]
#CHILD	PARENT
MASTER GLOBAL
root MASTER
chest root
L_mid_tent01 root
R_mid_tent01 root
spine01 root
Bip01_Neck chest
L_humerus chest
R_humerus chest
weapon_bone chest
Bip01_Head Bip01_Neck
eye_left_bone Bip01_Head
eye_right_bone Bip01_Head
L_forearm L_humerus
L_front_hand L_forearm
L_weapon_bone L_forearm
L_front_hand01_01 L_front_hand
L_front_hand02_01 L_front_hand
L_front_hand03_01 L_front_hand
L_front_hand01_02 L_front_hand01_01
L_front_hand02_02 L_front_hand02_01
L_front_hand03_02 L_front_hand03_01
R_forearm R_humerus
R_front_hand R_forearm
R_weapon_bone R_forearm
R_front_hand01_01 R_front_hand
R_front_hand02_01 R_front_hand
R_front_hand03_01 R_front_hand
R_front_hand01_02 R_front_hand01_01
R_front_hand02_02 R_front_hand02_01
R_front_hand03_02 R_front_hand03_01
null_rope01_connect L_mid_tent01
Rope1_Seg01 null_rope01_connect
Rope1_Seg02 Rope1_Seg01
Rope1_Seg03 Rope1_Seg02
Rope1_Seg04 Rope1_Seg03
Rope1_Seg05 Rope1_Seg04
Rope1_Seg06 Rope1_Seg05
Rope1_Seg07 Rope1_Seg06
Rope1_Seg09 Rope1_Seg07
L_mid_hand01 Rope1_Seg09
L_mid_hand02 Rope1_Seg09
L_mid_hand03 Rope1_Seg09
null_rope02_connect R_mid_tent01
Rope2_Seg01 null_rope02_connect
Rope2_Seg02 Rope2_Seg01
Rope2_Seg03 Rope2_Seg02
Rope2_Seg04 Rope2_Seg03
Rope2_Seg05 Rope2_Seg04
Rope2_Seg06 Rope2_Seg05
Rope2_Seg07 Rope2_Seg06
Rope2_Seg09 Rope2_Seg07
R_mid_hand01 Rope2_Seg09
R_mid_hand02 Rope2_Seg09
R_mid_hand03 Rope2_Seg09
spine02 spine01
spine03 spine02
pelvis spine03
null_rope03_connect pelvis
null_rope04_connect pelvis
Rope3_Seg01 null_rope03_connect
Rope3_Seg02 Rope3_Seg01
Rope3_Seg03 Rope3_Seg02
Rope3_Seg04 Rope3_Seg03
Rope3_Seg05 Rope3_Seg04
Rope3_Seg06 Rope3_Seg05
Rope3_Seg07 Rope3_Seg06
Rope3_Seg08 Rope3_Seg07
Rope3_Seg09 Rope3_Seg08
R_rear_hand01 Rope3_Seg09
R_rear_hand02 Rope3_Seg09
R_rear_hand03 Rope3_Seg09
Rope4_Seg01 null_rope04_connect
Rope4_Seg02 Rope4_Seg01
Rope4_Seg03 Rope4_Seg02
Rope4_Seg04 Rope4_Seg03
Rope4_Seg05 Rope4_Seg04
Rope4_Seg06 Rope4_Seg05
Rope4_Seg07 Rope4_Seg06
Rope4_Seg08 Rope4_Seg07
Rope4_Seg09 Rope4_Seg08
L_rear_hand01 Rope4_Seg09
L_rear_hand02 Rope4_Seg09
L_rear_hand03 Rope4_Seg09
[BasePosition]
#SegmentName Tx, Ty, Tz, Rx, Ry, Rz, BoneLength
MASTER 0.000000 0.000000 0.000000 -90.000000 0.000000 0.000000 10.000000 
root 0.000000 0.000000 0.000000 0.000000 0.000000 0.000000 10.000000 
chest 0.000000 0.000000 0.000000 0.000000 0.000000 0.000000 10.000000 
L_mid_tent01 0.000000 0.000000 0.000000 0.000000 0.000000 0.000000 10.000000 
R_mid_tent01 0.000000 0.000000 0.000000 0.000000 0.000000 0.000000 10.000000 
spine01 0.000000 0.000000 0.000000 0.000000 0.000000 0.000000 10.000000 
Bip01_Neck 0.000000 0.000000 0.000000 0.000000 0.000000 0.000000 10.000000 
L_humerus 0.000000 0.000000 0.000000 0.000000 0.000000 0.000000 10.000000 
R_humerus 0.000000 0.000000 0.000000 0.000000 0.000000 0.000000 10.000000 
weapon_bone 0.000000 0.000000 0.000000 0.000000 0.000000 0.000000 10.000000 
Bip01_Head 0.000000 0.000000 0.000000 0.000000 0.000000 0.000000 10.000000 
eye_left_bone 0.000000 0.000000 0.000000 0.000000 0.000000 0.000000 10.000000 
eye_right_bone 0.000000 0.000000 0.000000 0.000000 0.000000 0.000000 10.000000 
L_forearm 0.000000 0.000000 0.000000 0.000000 0.000000 0.000000 10.000000 
L_front_hand 0.000000 0.000000 0.000000 0.000000 0.000000 0.000000 10.000000 
L_weapon_bone 0.000000 0.000000 0.000000 0.000000 0.000000 0.000000 10.000000 
L_front_hand01_01 0.000000 0.000000 0.000000 0.000000 0.000000 0.000000 10.000000 
L_front_hand02_01 0.000000 0.000000 0.000000 0.000000 0.000000 0.000000 10.000000 
L_front_hand03_01 0.000000 0.000000 0.000000 0.000000 0.000000 0.000000 10.000000 
L_front_hand01_02 0.000000 0.000000 0.000000 0.000000 0.000000 0.000000 10.000000 
L_front_hand02_02 0.000000 0.000000 0.000000 0.000000 0.000000 0.000000 10.000000 
L_front_hand03_02 0.000000 0.000000 0.000000 0.000000 0.000000 0.000000 10.000000 
R_forearm 0.000000 0.000000 0.000000 0.000000 0.000000 0.000000 10.000000 
R_front_hand 0.000000 0.000000 0.000000 0.000000 0.000000 0.000000 10.000000 
R_weapon_bone 0.000000 0.000000 0.000000 0.000000 0.000000 0.000000 10.000000 
R_front_hand01_01 0.000000 0.000000 0.000000 0.000000 0.000000 0.000000 10.000000 
R_front_hand02_01 0.000000 0.000000 0.000000 0.000000 0.000000 0.000000 10.000000 
R_front_hand03_01 0.000000 0.000000 0.000000 0.000000 0.000000 0.000000 10.000000 
R_front_hand01_02 0.000000 0.000000 0.000000 0.000000 0.000000 0.000000 10.000000 
R_front_hand02_02 0.000000 0.000000 0.000000 0.000000 0.000000 0.000000 10.000000 
R_front_hand03_02 0.000000 0.000000 0.000000 0.000000 0.000000 0.000000 10.000000 
null_rope01_connect 0.000000 0.000000 0.000000 0.000000 0.000000 0.000000 10.000000 
Rope1_Seg01 0.000000 0.000000 0.000000 0.000000 0.000000 0.000000 10.000000 
Rope1_Seg02 0.000000 0.000000 0.000000 0.000000 0.000000 0.000000 10.000000 
Rope1_Seg03 0.000000 0.000000 0.000000 0.000000 0.000000 0.000000 10.000000 
Rope1_Seg04 0.000000 0.000000 0.000000 0.000000 0.000000 0.000000 10.000000 
Rope1_Seg05 0.000000 0.000000 0.000000 0.000000 0.000000 0.000000 10.000000 
Rope1_Seg06 0.000000 0.000000 0.000000 0.000000 0.000000 0.000000 10.000000 
Rope1_Seg07 0.000000 0.000000 0.000000 0.000000 0.000000 0.000000 10.000000 
Rope1_Seg09 0.000000 0.000000 0.000000 0.000000 0.000000 0.000000 10.000000 
L_mid_hand01 0.000000 0.000000 0.000000 0.000000 0.000000 0.000000 10.000000 
L_mid_hand02 0.000000 0.000000 0.000000 0.000000 0.000000 0.000000 10.000000 
L_mid_hand03 0.000000 0.000000 0.000000 0.000000 0.000000 0.000000 10.000000 
null_rope02_connect 0.000000 0.000000 0.000000 0.000000 0.000000 0.000000 10.000000 
Rope2_Seg01 0.000000 0.000000 0.000000 0.000000 0.000000 0.000000 10.000000 
Rope2_Seg02 0.000000 0.000000 0.000000 0.000000 0.000000 0.000000 10.000000 
Rope2_Seg03 0.000000 0.000000 0.000000 0.000000 0.000000 0.000000 10.000000 
Rope2_Seg04 0.000000 0.000000 0.000000 0.000000 0.000000 0.000000 10.000000 
Rope2_Seg05 0.000000 0.000000 0.000000 0.000000 0.000000 0.000000 10.000000 
Rope2_Seg06 0.000000 0.000000 0.000000 0.000000 0.000000 0.000000 10.000000 
Rope2_Seg07 0.000000 0.000000 0.000000 0.000000 0.000000 0.000000 10.000000 
Rope2_Seg09 0.000000 0.000000 0.000000 0.000000 0.000000 0.000000 10.000000 
R_mid_hand01 0.000000 0.000000 0.000000 0.000000 0.000000 0.000000 10.000000 
R_mid_hand02 0.000000 0.000000 0.000000 0.000000 0.000000 0.000000 10.000000 
R_mid_hand03 0.000000 0.000000 0.000000 0.000000 0.000000 0.000000 10.000000 
spine02 0.000000 0.000000 0.000000 0.000000 0.000000 0.000000 10.000000 
spine03 0.000000 0.000000 0.000000 0.000000 0.000000 0.000000 10.000000 
pelvis 0.000000 0.000000 0.000000 0.000000 0.000000 0.000000 10.000000 
null_rope03_connect 0.000000 0.000000 0.000000 0.000000 0.000000 0.000000 10.000000 
null_rope04_connect 0.000000 0.000000 0.000000 0.000000 0.000000 0.000000 10.000000 
Rope3_Seg01 0.000000 0.000000 0.000000 0.000000 0.000000 0.000000 10.000000 
Rope3_Seg02 0.000000 0.000000 0.000000 0.000000 0.000000 0.000000 10.000000 
Rope3_Seg03 0.000000 0.000000 0.000000 0.000000 0.000000 0.000000 10.000000 
Rope3_Seg04 0.000000 0.000000 0.000000 0.000000 0.000000 0.000000 10.000000 
Rope3_Seg05 0.000000 0.000000 0.000000 0.000000 0.000000 0.000000 10.000000 
Rope3_Seg06 0.000000 0.000000 0.000000 0.000000 0.000000 0.000000 10.000000 
Rope3_Seg07 0.000000 0.000000 0.000000 0.000000 0.000000 0.000000 10.000000 
Rope3_Seg08 0.000000 0.000000 0.000000 0.000000 0.000000 0.000000 10.000000 
Rope3_Seg09 0.000000 0.000000 0.000000 0.000000 0.000000 0.000000 10.000000 
R_rear_hand01 0.000000 0.000000 0.000000 0.000000 0.000000 0.000000 10.000000 
R_rear_hand02 0.000000 0.000000 0.000000 0.000000 0.000000 0.000000 10.000000 
R_rear_hand03 0.000000 0.000000 0.000000 0.000000 0.000000 0.000000 10.000000 
Rope4_Seg01 0.000000 0.000000 0.000000 0.000000 0.000000 0.000000 10.000000 
Rope4_Seg02 0.000000 0.000000 0.000000 0.000000 0.000000 0.000000 10.000000 
Rope4_Seg03 0.000000 0.000000 0.000000 0.000000 0.000000 0.000000 10.000000 
Rope4_Seg04 0.000000 0.000000 0.000000 0.000000 0.000000 0.000000 10.000000 
Rope4_Seg05 0.000000 0.000000 0.000000 0.000000 0.000000 0.000000 10.000000 
Rope4_Seg06 0.000000 0.000000 0.000000 0.000000 0.000000 0.000000 10.000000 
Rope4_Seg07 0.000000 0.000000 0.000000 0.000000 0.000000 0.000000 10.000000 
Rope4_Seg08 0.000000 0.000000 0.000000 0.000000 0.000000 0.000000 10.000000 
Rope4_Seg09 0.000000 0.000000 0.000000 0.000000 0.000000 0.000000 10.000000 
L_rear_hand01 0.000000 0.000000 0.000000 0.000000 0.000000 0.000000 10.000000 
L_rear_hand02 0.000000 0.000000 0.000000 0.000000 0.000000 0.000000 10.000000 
L_rear_hand03 0.000000 0.000000 0.000000 0.000000 0.000000 0.000000 10.000000 
#Beginning of Data. Separated by tabs
#Fr	Tx	Ty	Tz	Rx	Ry	Rz	SF
[MASTER]
11 -0.000192 1000.296326 0.000044 0.001660 0.001660 0.001660 1000.296387
12 -0.000212 1100.326172 0.000049 0.001660 0.001660 0.001660 1100.326172
[root]
11 -32.675663 10.381241 1424.778687 -91.725899 -11.581532 -89.471619 1425.191040
12 -35.486309 14.684532 1434.562134 -91.725616 -11.581240 -89.471642 1435.076050
[chest]
11 -84.512650 -34.090519 0.000000 -2.167659 -0.114852 165.398300 91.129311
12 -84.512650 -34.090519 0.000000 -2.168575 -0.104099 165.707230 91.129311
[L_mid_tent01]
11 27.299099 22.179182 -249.918701 -19.616138 5.909610 17.254005 252.381683
12 27.299101 22.179174 -249.918701 -19.672329 5.946412 17.042877 252.381683
[R_mid_tent01]
11 23.228794 24.509907 226.238495 -167.786896 -9.146120 28.226166 228.744751
12 23.228794 24.509907 226.238495 -167.793762 -10.059557 27.915817 228.744751
[spine01]
11 -0.361383 -0.195265 0.000000 -0.000001 -0.000007 22.052340 0.410763
12 -0.361383 -0.195265 0.000000 -0.000001 -0.000007 22.052340 0.410763
[Bip01_Neck]
11 165.484543 71.581718 0.000119 176.643677 -1.657967 43.431911 180.302734
12 165.484543 71.581718 0.000119 176.643677 -1.657967 43.431911 180.302734
[L_humerus]
11 -13.983130 -135.272980 -120.471481 -5.724331 80.297668 78.077034 181.680161
12 -13.983130 -135.272980 -120.471481 -5.662569 80.082222 78.254486 181.680161
[R_humerus]
11 -13.983309 -135.273102 125.287651 44.030338 -76.623581 50.940765 184.909012
12 -13.983309 -135.273102 125.287651 43.589378 -76.509659 51.396370 184.909012
[weapon_bone]
11 235.964890 -300.705902 0.000000 0.000000 -89.951546 -128.212341 382.234833
12 235.964890 -300.705902 0.000000 0.000000 -89.951546 -128.212341 382.234833
[Bip01_Head]
11 213.662247 185.109711 19.599890 4.440152 -1.457900 -43.897720 283.374878
12 213.630066 185.198364 18.453960 4.440121 -1.431086 -43.901863 283.331573
[eye_left_bone]
11 -24.626970 125.451866 -64.772606 0.000000 -90.000000 -99.840431 143.318359
12 -24.626970 125.451866 -64.772606 0.000000 -90.000000 -99.840431 143.318359
[eye_right_bone]
11 -24.626970 125.451866 64.327362 0.000000 -89.965736 80.156380 143.117676
12 -24.626970 125.451866 64.327362 0.000000 -89.965736 80.156380 143.117676
[L_forearm]
11 322.776093 0.000000 -0.000119 0.000396 -0.002314 -109.419975 322.776093
12 322.776093 0.000000 -0.000119 0.000396 -0.002314 -109.419975 322.776093
[L_front_hand]
11 241.149185 -0.042021 -3.300071 -178.667953 -1.835447 -27.422350 241.171753
12 241.149185 -0.042021 -3.300071 -178.667953 -1.835447 -27.422350 241.171753
[L_weapon_bone]
11 156.183838 0.000000 0.000000 0.000014 0.000007 0.000001 156.183838
12 156.183838 0.000000 0.000000 0.000014 0.000007 0.000001 156.183838
[L_front_hand01_01]
11 86.095154 20.947098 -0.655860 -0.282467 -0.528169 66.067474 88.609184
12 86.095154 20.947098 -0.655860 -0.274633 -0.532782 65.272827 88.609184
[L_front_hand02_01]
11 86.935165 -11.437475 24.513514 141.960785 -54.937954 -46.642345 91.046425
12 86.935165 -11.437475 24.513514 141.090271 -54.445614 -45.572052 91.046425
[L_front_hand03_01]
11 86.637497 -14.123976 -20.424902 -142.303543 53.163303 -48.671032 90.126129
12 86.637497 -14.123976 -20.424902 -141.476303 52.677540 -47.637543 90.126129
[L_front_hand01_02]
11 71.020905 -0.000179 0.000030 0.000315 -0.002326 -105.442802 71.020905
12 71.020905 -0.000179 0.000030 0.000315 -0.002326 -105.419182 71.020905
[L_front_hand02_02]
11 71.020927 -0.000119 0.000060 0.000315 -0.002326 -105.442802 71.020927
12 71.020927 -0.000119 0.000060 0.000315 -0.002326 -105.419182 71.020927
[L_front_hand03_02]
11 71.020905 -0.000060 0.000060 0.000315 -0.002326 -105.442802 71.020905
12 71.020905 -0.000060 0.000060 0.000315 -0.002326 -105.419182 71.020905
[R_forearm]
11 322.776428 -0.000060 0.000030 0.202103 0.065158 -108.062805 322.776428
12 322.776428 -0.000060 0.000030 0.202103 0.065158 -108.062805 322.776428
[R_front_hand]
11 238.847015 -0.006795 2.210259 -2.635298 -10.645461 -26.312506 238.857239
12 238.847015 -0.006795 2.210259 -2.635298 -10.645461 -26.312506 238.857239
[R_weapon_bone]
11 155.664093 0.002503 -0.000030 0.003487 0.001180 -90.988930 155.664078
12 155.664093 0.002503 -0.000030 0.003487 0.001180 -90.988930 155.664078
[R_front_hand01_01]
11 87.624611 14.231146 22.918642 -141.947067 -54.924736 46.726738 91.683487
12 87.624611 14.231146 22.918642 -140.500656 -54.097115 44.955364 91.683487
[R_front_hand02_01]
11 89.356956 14.367283 -19.491137 142.634140 53.329124 49.315857 92.579636
12 89.356956 14.367283 -19.491137 141.255966 52.517570 47.591045 92.579636
[R_front_hand03_01]
11 87.286232 -22.307278 -0.143439 0.092230 -0.445770 -66.286453 90.091743
12 87.286232 -22.307278 -0.143439 0.080269 -0.445286 -64.968231 90.091743
[R_front_hand01_02]
11 71.020905 0.000060 0.000119 0.002323 -0.000334 106.381714 71.020905
12 71.020905 0.000060 0.000119 0.002323 -0.000334 106.381714 71.020905
[R_front_hand02_02]
11 71.020844 -0.000030 -0.000119 0.002323 -0.000334 106.381714 71.020836
12 71.020844 -0.000030 -0.000119 0.002323 -0.000334 106.381714 71.020836
[R_front_hand03_02]
11 71.020905 0.000000 0.000030 0.002323 -0.000334 106.381714 71.020905
12 71.020905 0.000000 0.000030 0.002323 -0.000334 106.381714 71.020905
[null_rope01_connect]
11 328.732483 0.000000 -0.000238 -170.733551 -67.909035 -105.864975 328.732483
12 328.732483 0.000000 -0.000238 -170.511078 -67.847351 -105.885658 328.732483
[Rope1_Seg01]
11 -0.000019 0.000019 0.000076 92.939186 -7.384300 -101.045074 0.000081
12 -0.000021 0.000017 0.000084 88.094986 -6.243556 -103.181084 0.000088
[Rope1_Seg02]
11 139.999863 -0.000179 0.000000 -5.240194 -0.023346 -4.117275 139.999863
12 139.999863 -0.000179 0.000000 -4.164433 0.663984 -3.982498 139.999863
[Rope1_Seg03]
11 139.999924 0.000060 -0.000060 -10.754720 -3.847650 -4.966129 139.999924
12 139.999924 0.000060 -0.000060 -10.543530 -3.377365 -5.413091 139.999924
[Rope1_Seg04]
11 139.999924 -0.000060 -0.000119 -1.648609 2.176149 -4.012861 139.999924
12 139.999924 -0.000060 -0.000119 -0.519513 2.850484 -3.638219 139.999924
[Rope1_Seg05]
11 139.999832 0.000119 -0.000060 18.287174 15.765412 5.260058 139.999832
12 139.999832 0.000119 -0.000060 20.850054 16.366158 7.452303 139.999832
[Rope1_Seg06]
11 139.999954 0.000119 -0.000060 4.570129 6.386269 0.093168 139.999954
12 139.999954 0.000119 -0.000060 5.111783 6.730305 0.515684 139.999954
[Rope1_Seg07]
11 139.999985 0.000060 0.000000 1.576424 2.771606 -0.346113 139.999985
12 139.999985 0.000060 0.000000 1.772683 2.938230 -0.200271 139.999985
[Rope1_Seg09]
11 121.602913 0.000119 -0.000089 -89.793175 -1.359789 0.847147 121.602913
12 121.602913 0.000119 -0.000089 -89.793175 -1.359789 0.847147 121.602913
[L_mid_hand01]
11 103.859421 1.038730 8.195221 110.016693 -43.583393 -14.630751 104.187431
12 103.859421 1.038730 8.195221 111.216125 -46.770245 -16.325298 104.187431
[L_mid_hand02]
11 105.572853 -4.139662 -10.864139 -148.402451 33.171711 -41.059566 106.211075
12 105.572853 -4.139662 -10.864139 -150.384232 34.904911 -44.592556 106.211075
[L_mid_hand03]
11 104.641464 17.579376 -3.913581 -13.575850 13.082139 47.042397 106.179977
12 104.641464 17.579376 -3.913581 -12.781249 13.855401 50.452690 106.179977
[null_rope02_connect]
11 328.732849 0.000179 -0.000119 -157.355804 76.301765 -49.637383 328.732849
12 328.732849 0.000179 -0.000119 -154.220764 75.711632 -46.703758 328.732849
[Rope2_Seg01]
11 0.000095 0.000153 0.000038 -25.282194 -6.562648 -58.111332 0.000184
12 0.000095 0.000153 0.000042 -20.435287 -6.216900 -55.928272 0.000185
[Rope2_Seg02]
11 139.999741 -0.000060 -0.000119 -3.035442 7.605113 -5.006160 139.999756
12 139.999741 -0.000060 -0.000119 -6.478165 6.402518 -6.173242 139.999756
[Rope2_Seg03]
11 140.000107 0.000030 0.000000 1.860303 5.477696 -1.102787 140.000107
12 140.000107 0.000030 0.000000 0.469119 4.371951 -1.628617 140.000107
[Rope2_Seg04]
11 139.999802 0.000000 -0.000060 -2.816101 4.254654 -4.252466 139.999802
12 139.999802 0.000000 -0.000060 -3.379739 4.491766 -4.613296 139.999802
[Rope2_Seg05]
11 139.999985 -0.000060 0.000119 -6.459840 3.476711 -8.299173 139.999985
12 139.999985 -0.000060 0.000119 -6.776352 5.819427 -9.410893 139.999985
[Rope2_Seg06]
11 139.999893 -0.000030 -0.000119 -2.916295 2.834697 -4.847486 139.999893
12 139.999893 -0.000030 -0.000119 -2.818174 4.360392 -5.469285 139.999893
[Rope2_Seg07]
11 139.999893 0.000060 -0.000060 -1.378020 2.006721 -2.778107 139.999893
12 139.999893 0.000060 -0.000060 -1.220491 2.804785 -3.021769 139.999893
[Rope2_Seg09]
11 121.338966 0.000089 -0.000060 33.793236 -1.359788 -0.847141 121.338966
12 121.338966 0.000089 -0.000060 33.793236 -1.359788 -0.847141 121.338966
[R_mid_hand01]
11 104.680779 11.144459 -10.335981 -36.116535 33.174706 39.598408 105.778534
12 104.680779 11.144459 -10.335981 -36.922554 32.243565 38.107742 105.778534
[R_mid_hand02]
11 104.070427 2.443552 8.231699 69.680679 -44.419243 15.065832 104.424065
12 104.070427 2.443552 8.231699 70.193451 -42.958271 14.324638 104.424065
[R_mid_hand03]
11 106.028137 -11.221827 -5.996406 -170.354065 12.593579 -49.350628 106.788818
12 106.028137 -11.221827 -5.996406 -170.013962 12.325404 -47.779564 106.788818
[spine02]
11 129.756927 0.001550 0.000119 0.360061 -4.044797 -12.915058 129.756927
12 129.756927 0.001550 0.000119 0.360061 -4.044797 -12.915058 129.756927
[spine03]
11 78.614029 0.081740 -4.898998 1.896495 3.831288 16.473045 78.766563
12 78.614021 0.081739 -4.898997 1.896495 3.831288 16.473045 78.766556
[pelvis]
11 169.435242 0.051022 0.000000 -0.060465 -0.180225 14.087930 169.435257
12 169.435242 0.051022 0.000000 -0.060465 -0.180225 14.087930 169.435257
[null_rope03_connect]
11 -1.257226 -2.466202 137.391083 155.977051 -89.384514 -94.078072 137.418976
12 -1.257226 -2.466202 137.391083 155.941559 -89.384514 -94.042183 137.418976
[null_rope04_connect]
11 -1.259640 -2.480268 -137.844437 155.977051 -89.384514 -94.078072 137.872513
12 -1.259640 -2.480268 -137.844437 155.941559 -89.384514 -94.042183 137.872513
[Rope3_Seg01]
11 -0.000024 -0.000076 0.000000 11.948509 24.362106 -93.210258 0.000080
12 -0.000024 -0.000084 0.000000 9.897421 26.790541 -96.839928 0.000087
[Rope3_Seg02]
11 139.999924 -0.000119 0.000060 0.236213 0.068997 3.335673 139.999924
12 139.999924 -0.000119 0.000060 0.477504 -0.941595 5.356098 139.999924
[Rope3_Seg03]
11 139.999924 -0.000119 0.000119 0.149110 -0.028421 4.102473 139.999924
12 139.999924 -0.000119 0.000119 0.189386 -1.233696 6.948038 139.999924
[Rope3_Seg04]
11 139.999924 0.000119 0.000000 -0.147591 -0.287545 6.182212 139.999924
12 139.999924 0.000119 0.000000 -0.959580 -2.353640 12.119246 139.999924
[Rope3_Seg05]
11 139.999924 -0.000238 0.000060 0.264428 1.048026 -3.186440 139.999924
12 139.999924 -0.000238 0.000060 0.625075 1.878446 -5.465870 139.999924
[Rope3_Seg06]
11 139.999893 -0.000119 -0.000060 0.363834 1.209486 -6.036349 139.999893
12 139.999893 -0.000119 -0.000060 0.384713 2.860575 -10.899070 139.999893
[Rope3_Seg07]
11 139.999771 0.000060 -0.000119 0.399687 0.588973 -2.444636 139.999771
12 139.999771 0.000060 -0.000119 0.274228 1.109995 -4.047245 139.999771
[Rope3_Seg08]
11 139.999985 -0.000060 0.000000 0.441862 0.363803 -1.559841 139.999985
12 139.999985 -0.000060 0.000000 0.328597 0.666691 -2.474463 139.999985
[Rope3_Seg09]
11 90.185997 -0.000179 -0.000060 89.793228 -1.359877 -0.847183 90.185997
12 90.185997 -0.000179 -0.000060 89.793228 -1.359877 -0.847183 90.185997
[R_rear_hand01]
11 103.366196 -6.073594 -10.757982 -165.009155 19.819437 -41.100956 104.101845
12 103.366196 -6.073594 -10.757982 -164.755127 19.627697 -40.352161 104.101845
[R_rear_hand02]
11 100.509819 12.039542 -7.992327 -30.502344 25.155792 38.836960 101.543350
12 100.509819 12.039542 -7.992327 -30.792652 24.782450 38.141541 101.543350
[R_rear_hand03]
11 101.539970 5.215704 5.435467 82.364601 -41.773376 8.967985 101.819031
12 101.539970 5.215704 5.435467 82.448349 -41.048256 8.840383 101.819031
[Rope4_Seg01]
11 -0.000014 -0.000038 -0.000153 -99.959969 20.644367 -103.277412 0.000158
12 -0.000014 -0.000034 -0.000153 -100.765854 21.344795 -105.463455 0.000157
[Rope4_Seg02]
11 139.999985 0.000060 0.000119 -0.138685 -2.609060 0.732031 139.999985
12 139.999985 0.000060 0.000119 -0.231715 -2.994250 0.789412 139.999985
[Rope4_Seg03]
11 139.999924 0.000000 -0.000238 -0.073113 -2.777629 0.839510 139.999924
12 139.999924 0.000000 -0.000238 -0.151754 -3.237131 0.876744 139.999924
[Rope4_Seg04]
11 139.999985 0.000000 0.000119 -0.043149 -2.525424 1.808303 139.999985
12 139.999985 0.000000 0.000119 -0.150205 -3.651670 2.124397 139.999985
[Rope4_Seg05]
11 139.999802 -0.000060 -0.000119 0.125896 -4.183022 -0.285028 139.999802
12 139.999802 -0.000060 -0.000119 0.102310 -3.802100 -0.199673 139.999802
[Rope4_Seg06]
11 139.999924 0.000000 0.000060 0.141227 -3.399620 -1.867960 139.999924
12 139.999924 0.000000 0.000060 0.061288 -2.129200 -2.675802 139.999924
[Rope4_Seg07]
11 139.999802 0.000000 0.000000 0.168637 -1.995394 -0.782824 139.999802
12 139.999802 0.000000 0.000000 0.088795 -1.491020 -1.374549 139.999802
[Rope4_Seg08]
11 139.999924 0.000000 0.000119 -1.423284 -1.230194 -0.418338 139.999924
12 139.999924 0.000000 0.000119 -1.475830 -1.006789 -0.722377 139.999924
[Rope4_Seg09]
11 90.185791 0.000060 0.000060 -135.617828 2.228885 0.850567 90.185791
12 90.185791 0.000060 0.000060 -135.617828 2.228885 0.850567 90.185791
[L_rear_hand01]
11 101.696655 -8.392275 -7.654577 -28.015862 -27.942142 135.607529 102.329041
12 101.696655 -8.392275 -7.654577 -26.077669 -29.734318 131.595917 102.329041
[L_rear_hand02]
11 102.726799 -1.568258 5.773216 81.577332 47.415264 169.913025 102.900848
12 102.726799 -1.568258 5.773216 80.880585 51.310986 168.994995 102.900848
[L_rear_hand03]
11 104.552910 9.721220 -10.420293 -167.078079 -21.194330 -132.993347 105.519653
12 104.552910 9.721220 -10.420293 -168.606277 -22.023737 -128.845825 105.519653
